<?xml version="1.0" encoding="UTF-8" standalone="no"?><!DOCTYPE svg PUBLIC "-//W3C//DTD SVG 1.1//EN" "http://www.w3.org/Graphics/SVG/1.1/DTD/svg11.dtd"><svg width="100%" height="100%" viewBox="0 0 2884 1146" version="1.1" xmlns="http://www.w3.org/2000/svg" xmlns:xlink="http://www.w3.org/1999/xlink" xml:space="preserve" xmlns:serif="http://www.serif.com/" style="fill-rule:evenodd;clip-rule:evenodd;stroke-miterlimit:10;"><rect id="Página-1" serif:id="Página 1" x="0" y="0" width="2883.333" height="1145.833" style="fill:none;"/><g id="Layer-1" serif:id="Layer 1"><path d="M41.623,544.782l0,186.183l118.608,0" style="fill:none;fill-rule:nonzero;stroke:#000;stroke-width:4.17px;"/><path d="M433.755,733.749l0,-180.412l142.814,172.265l0,-180.82" style="fill:none;fill-rule:nonzero;stroke:#000;stroke-width:4.17px;"/><path d="M1425.839,733.072l87.945,-181.401l91.582,181.401" style="fill:none;fill-rule:nonzero;stroke:#000;stroke-width:4.17px;"/><path d="M889.679,733.072l87.945,-181.401l91.582,181.401" style="fill:none;fill-rule:nonzero;stroke:#000;stroke-width:4.17px;"/><path d="M207.23,733.072l87.945,-181.401l91.582,181.401" style="fill:none;fill-rule:nonzero;stroke:#000;stroke-width:4.17px;"/><path d="M1117.666,547.871l128.289,0" style="fill:none;fill-rule:nonzero;stroke:#000;stroke-width:4.17px;"/><path d="M2564.875,734.393l0,-189.61" style="fill:none;fill-rule:nonzero;stroke:#000;stroke-width:4.17px;"/><path d="M1889.268,547.871l128.289,0" style="fill:none;fill-rule:nonzero;stroke:#000;stroke-width:4.17px;"/><path d="M1953.412,734.393l0,-189.257" style="fill:none;fill-rule:nonzero;stroke:#000;stroke-width:4.17px;"/><path d="M1286.753,547.871l128.289,0" style="fill:none;fill-rule:nonzero;stroke:#000;stroke-width:4.17px;"/><path d="M1350.897,734.393l0,-189.257" style="fill:none;fill-rule:nonzero;stroke:#000;stroke-width:4.17px;"/><path d="M1117.666,639.559l128.289,0" style="fill:none;fill-rule:nonzero;stroke:#000;stroke-width:4.17px;"/><path d="M1117.666,731.248l128.289,0" style="fill:none;fill-rule:nonzero;stroke:#000;stroke-width:4.17px;"/><path d="M2826.341,639.587c0,-50.569 -41.055,-91.625 -91.622,-91.625c-50.568,0 -91.622,41.056 -91.622,91.625c0,50.569 41.055,91.625 91.622,91.625c50.568,0 91.622,-41.056 91.622,-91.625Z" style="fill:none;stroke:#000;stroke-width:4.17px;"/><path d="M2081.366,544.782l0,123.637c0,12.848 3.365,25.653 10.664,36.225c9.155,13.263 25.944,26.525 56.508,26.525" style="fill:none;fill-rule:nonzero;stroke:#000;stroke-width:4.17px;"/><path d="M2215.708,544.782l0,123.637c0,12.848 -3.365,25.653 -10.664,36.225c-9.155,13.263 -25.944,26.525 -56.508,26.525" style="fill:none;fill-rule:nonzero;stroke:#000;stroke-width:4.17px;"/><path d="M2314.381,639.675l0,91.551l104.35,0c0,0 67.661,-1.553 67.661,-91.551" style="fill:none;fill-rule:nonzero;stroke:#000;stroke-width:4.17px;"/><path d="M2486.391,639.675c0,-89.999 -67.661,-91.551 -67.661,-91.551l-104.35,0" style="fill:none;fill-rule:nonzero;stroke:#000;stroke-width:4.17px;"/><path d="M669.551,639.675l0,91.551l104.35,0c0,0 67.661,-1.553 67.661,-91.551" style="fill:none;fill-rule:nonzero;stroke:#000;stroke-width:4.17px;"/><path d="M841.561,639.675c0,-89.999 -67.661,-91.551 -67.661,-91.551l-104.35,0" style="fill:none;fill-rule:nonzero;stroke:#000;stroke-width:4.17px;"/><path d="M1834.749,563.122c-23.537,-11.345 -54.374,-21.15 -81.054,-12.081c-31.598,9 -46.221,50.613 -15.316,70.897c26.519,18.143 67.061,16.417 87.642,40.734c22.956,26.537 3.662,61.475 -29.092,66.777c-26.748,5.969 -57.832,-2.895 -79.458,-14.636" style="fill:none;fill-rule:nonzero;stroke:#000;stroke-width:4.17px;"/></g></svg>